<?xml version="1.0" standalone="no"?>
 <!DOCTYPE svg PUBLIC "-//W3C//DTD SVG 1.1//EN" 
 "http://www.w3.org/Graphics/SVG/1.1/DTD/svg11.dtd"> 
<svg
  xmlns:svg="http://www.w3.org/2000/svg"
  xmlns="http://www.w3.org/2000/svg"
  xmlns:xlink="http://www.w3.org/1999/xlink"
  version="1.1"
  width="1.785620cm" height="2.268220cm" viewBox="0 0 17856200 22682200">
<title>SVG Picture created as pcb_ejemplo-F_Cu.svg date 2022/10/03 11:40:52 </title>
  <desc>Picture generated by PCBNEW </desc>
<g style="fill:#000000; fill-opacity:1.000000;stroke:#000000; stroke-opacity:1.000000;
stroke-linecap:round; stroke-linejoin:round;"
 transform="translate(0 0) scale(1 1)">
</g>
<g style="fill:#000000; fill-opacity:0.0; 
stroke:#000000; stroke-width:0.000000; stroke-opacity:1; 
stroke-linecap:round; stroke-linejoin:round;">
</g>
<g style="fill:#000000; fill-opacity:1.0; 
stroke:#000000; stroke-width:1.000000; stroke-opacity:1; 
stroke-linecap:round; stroke-linejoin:round;">
<circle cx="2590000.000000" cy="5638000.000000" r="667961.000000" /> 
<g >
<path style="fill:#000000; fill-opacity:1.0; 
stroke:#000000; stroke-width:1.000000; stroke-opacity:1; 
stroke-linecap:round; stroke-linejoin:round;fill-rule:evenodd;"
d="M 15632000.000000,9400000.000000
13932000.000000,9400000.000000
13932000.000000,7400000.000000
15632000.000000,7400000.000000
Z" /> 
<path style="fill:#000000; fill-opacity:1.0; 
stroke:#000000; stroke-width:1.000000; stroke-opacity:1; 
stroke-linecap:round; stroke-linejoin:round;fill-rule:evenodd;"
d="M 15632000.000000,5400000.000000
13932000.000000,5400000.000000
13932000.000000,3400000.000000
15632000.000000,3400000.000000
Z" /> 
</g>
<g >
</g>
<g style="fill:#000000; fill-opacity:1.0; 
stroke:#000000; stroke-width:1.000000; stroke-opacity:1; 
stroke-linecap:round; stroke-linejoin:round;">
<path style="fill:#000000; fill-opacity:1.0; 
stroke:#000000; stroke-width:1.000000; stroke-opacity:1; 
stroke-linecap:round; stroke-linejoin:round;fill-rule:evenodd;"
d="M 8598000.000000,14294000.000000
10298000.000000,14294000.000000
10298000.000000,16794000.000000
8598000.000000,16794000.000000
Z" /> 
<path style="fill:#000000; fill-opacity:1.0; 
stroke:#000000; stroke-width:1.000000; stroke-opacity:1; 
stroke-linecap:round; stroke-linejoin:round;fill-rule:evenodd;"
d="M 6058000.000000,14294000.000000
7758000.000000,14294000.000000
7758000.000000,16794000.000000
6058000.000000,16794000.000000
Z" /> 
<path style="fill:#000000; fill-opacity:1.0; 
stroke:#000000; stroke-width:1.000000; stroke-opacity:1; 
stroke-linecap:round; stroke-linejoin:round;fill-rule:evenodd;"
d="M 3518000.000000,14294000.000000
5218000.000000,14294000.000000
5218000.000000,16794000.000000
3518000.000000,16794000.000000
Z" /> 
</g>
<g >
</g>
<g style="fill:#000000; fill-opacity:1.0; 
stroke:#000000; stroke-width:1.000000; stroke-opacity:1; 
stroke-linecap:round; stroke-linejoin:round;">
<path style="fill:#000000; fill-opacity:1.0; 
stroke:#000000; stroke-width:1.000000; stroke-opacity:1; 
stroke-linecap:round; stroke-linejoin:round;fill-rule:evenodd;"
d="M 4416000.000000,5218000.000000
4416000.000000,3518000.000000
6416000.000000,3518000.000000
6416000.000000,5218000.000000
Z" /> 
<path style="fill:#000000; fill-opacity:1.0; 
stroke:#000000; stroke-width:1.000000; stroke-opacity:1; 
stroke-linecap:round; stroke-linejoin:round;fill-rule:evenodd;"
d="M 8416000.000000,5218000.000000
8416000.000000,3518000.000000
10416000.000000,3518000.000000
10416000.000000,5218000.000000
Z" /> 
</g>
<g >
</g>
<g style="fill:#000000; fill-opacity:1.0; 
stroke:#000000; stroke-width:1.000000; stroke-opacity:1; 
stroke-linecap:round; stroke-linejoin:round;">
<path style="fill:#000000; fill-opacity:1.0; 
stroke:#000000; stroke-width:1.000000; stroke-opacity:1; 
stroke-linecap:round; stroke-linejoin:round;fill-rule:evenodd;"
d="M 3616000.000000,7943000.000000
3616000.000000,7143000.000000
5616000.000000,7143000.000000
5616000.000000,7943000.000000
Z" /> 
<path style="fill:#000000; fill-opacity:1.0; 
stroke:#000000; stroke-width:1.000000; stroke-opacity:1; 
stroke-linecap:round; stroke-linejoin:round;fill-rule:evenodd;"
d="M 3616000.000000,9213000.000000
3616000.000000,8413000.000000
5616000.000000,8413000.000000
5616000.000000,9213000.000000
Z" /> 
<path style="fill:#000000; fill-opacity:1.0; 
stroke:#000000; stroke-width:1.000000; stroke-opacity:1; 
stroke-linecap:round; stroke-linejoin:round;fill-rule:evenodd;"
d="M 3616000.000000,10483000.000000
3616000.000000,9683000.000000
5616000.000000,9683000.000000
5616000.000000,10483000.000000
Z" /> 
<path style="fill:#000000; fill-opacity:1.0; 
stroke:#000000; stroke-width:1.000000; stroke-opacity:1; 
stroke-linecap:round; stroke-linejoin:round;fill-rule:evenodd;"
d="M 3616000.000000,11753000.000000
3616000.000000,10953000.000000
5616000.000000,10953000.000000
5616000.000000,11753000.000000
Z" /> 
<path style="fill:#000000; fill-opacity:1.0; 
stroke:#000000; stroke-width:1.000000; stroke-opacity:1; 
stroke-linecap:round; stroke-linejoin:round;fill-rule:evenodd;"
d="M 9216000.000000,11753000.000000
9216000.000000,10953000.000000
11216000.000000,10953000.000000
11216000.000000,11753000.000000
Z" /> 
<path style="fill:#000000; fill-opacity:1.0; 
stroke:#000000; stroke-width:1.000000; stroke-opacity:1; 
stroke-linecap:round; stroke-linejoin:round;fill-rule:evenodd;"
d="M 9216000.000000,10483000.000000
9216000.000000,9683000.000000
11216000.000000,9683000.000000
11216000.000000,10483000.000000
Z" /> 
<path style="fill:#000000; fill-opacity:1.0; 
stroke:#000000; stroke-width:1.000000; stroke-opacity:1; 
stroke-linecap:round; stroke-linejoin:round;fill-rule:evenodd;"
d="M 9216000.000000,9213000.000000
9216000.000000,8413000.000000
11216000.000000,8413000.000000
11216000.000000,9213000.000000
Z" /> 
<path style="fill:#000000; fill-opacity:1.0; 
stroke:#000000; stroke-width:1.000000; stroke-opacity:1; 
stroke-linecap:round; stroke-linejoin:round;fill-rule:evenodd;"
d="M 9216000.000000,7943000.000000
9216000.000000,7143000.000000
11216000.000000,7143000.000000
11216000.000000,7943000.000000
Z" /> 
</g>
<g >
</g>
<g style="fill:#000000; fill-opacity:1.0; 
stroke:#000000; stroke-width:1.000000; stroke-opacity:1; 
stroke-linecap:round; stroke-linejoin:round;">
<path style="fill:#000000; fill-opacity:1.0; 
stroke:#000000; stroke-width:1.000000; stroke-opacity:1; 
stroke-linecap:round; stroke-linejoin:round;fill-rule:evenodd;"
d="M 13932000.000000,11242000.000000
15632000.000000,11242000.000000
15632000.000000,13242000.000000
13932000.000000,13242000.000000
Z" /> 
<path style="fill:#000000; fill-opacity:1.0; 
stroke:#000000; stroke-width:1.000000; stroke-opacity:1; 
stroke-linecap:round; stroke-linejoin:round;fill-rule:evenodd;"
d="M 13932000.000000,15242000.000000
15632000.000000,15242000.000000
15632000.000000,17242000.000000
13932000.000000,17242000.000000
Z" /> 
</g>
<g >
</g>
<g >
</g>
<g style="fill:#000000; fill-opacity:1.0; 
stroke:#000000; stroke-width:1.000000; stroke-opacity:1; 
stroke-linecap:round; stroke-linejoin:round;">
</g>
<g style="fill:#000000; fill-opacity:1.0; 
stroke:#000000; stroke-width:800000.000000; stroke-opacity:1; 
stroke-linecap:round; stroke-linejoin:round;">
</g>
<g style="fill:#000000; fill-opacity:0.0; 
stroke:#000000; stroke-width:800000.000000; stroke-opacity:1; 
stroke-linecap:round; stroke-linejoin:round;">
<path d="M2886000 7543000
L2082000 8347000
" />
</g>
<g style="fill:#000000; fill-opacity:0.0; 
stroke:#000000; stroke-width:400000.000000; stroke-opacity:1; 
stroke-linecap:round; stroke-linejoin:round;">
<path d="M5130000 4654000
L5416000 4368000
" />
</g>
<g style="fill:#000000; fill-opacity:0.0; 
stroke:#000000; stroke-width:800000.000000; stroke-opacity:1; 
stroke-linecap:round; stroke-linejoin:round;">
<path d="M4616000 7543000
L2886000 7543000
" />
<path d="M2082000 8347000
L2082000 13258000
" />
<path d="M2082000 13258000
L4368000 15544000
" />
</g>
<g style="fill:#000000; fill-opacity:0.0; 
stroke:#000000; stroke-width:400000.000000; stroke-opacity:1; 
stroke-linecap:round; stroke-linejoin:round;">
<path d="M4616000 7543000
L5130000 7029000
" />
<path d="M5130000 7029000
L5130000 4654000
" />
<path d="M8559000 7543000
L10216000 7543000
" />
<path d="M6908000 15544000
L6908000 9194000
" />
<path d="M10216000 5168000
L9416000 4368000
" />
<path d="M9416000 4368000
L14750000 4368000
" />
<path d="M10216000 7543000
L10216000 5168000
" />
<path d="M14750000 4368000
L14782000 4400000
" />
<path d="M6908000 9194000
L8559000 7543000
" />
<path d="M14782000 15919000
L10216000 11353000
" />
<path d="M14782000 16242000
L14782000 15919000
" />
<path d="M14782000 8400000
L14782000 12242000
" />
<path d="M7924000 12242000
L9448000 13766000
" />
<path d="M7924000 10718000
L7924000 12242000
" />
<path d="M8559000 10083000
L7924000 10718000
" />
<path d="M10216000 10083000
L8559000 10083000
" />
<path d="M9448000 13766000
L9448000 15544000
" />
</g>
<g >
</g>
</g>
<g style="fill:#FFFFFF; fill-opacity:0.0; 
stroke:#FFFFFF; stroke-width:400000.000000; stroke-opacity:1; 
stroke-linecap:round; stroke-linejoin:round;">
</g>
<g style="fill:#000000; fill-opacity:0.0; 
stroke:#000000; stroke-width:400000.000000; stroke-opacity:1; 
stroke-linecap:round; stroke-linejoin:round;">
</g>
<g style="fill:#000000; fill-opacity:0.0; 
stroke:#000000; stroke-width:100000.000000; stroke-opacity:1; 
stroke-linecap:round; stroke-linejoin:round;">
<path d="M50000 50000
L17830000 50000
" />
<path d="M17830000 50000
L17830000 22656000
" />
<path d="M17830000 22656000
L50000 22656000
" />
<path d="M50000 22656000
L50000 50000
" />
<g >
</g>
<g >
</g>
<g >
</g>
<g >
</g>
<g >
</g>
<g >
</g>
<g >
</g>
<g >
</g>
</g> 
</svg>
