<?xml version="1.0" standalone="no"?>
 <!DOCTYPE svg PUBLIC "-//W3C//DTD SVG 1.1//EN" 
 "http://www.w3.org/Graphics/SVG/1.1/DTD/svg11.dtd"> 
<svg
  xmlns:svg="http://www.w3.org/2000/svg"
  xmlns="http://www.w3.org/2000/svg"
  xmlns:xlink="http://www.w3.org/1999/xlink"
  version="1.1"
  width="2.090420cm" height="2.039620cm" viewBox="0 0 20904200 20396200">
<title>SVG Picture created as pcb_ejemplo-F_Cu.svg date 2022/09/02 14:39:45 </title>
  <desc>Picture generated by PCBNEW </desc>
<g style="fill:#000000; fill-opacity:1.000000;stroke:#000000; stroke-opacity:1.000000;
stroke-linecap:round; stroke-linejoin:round;"
 transform="translate(0 0) scale(1 1)">
</g>
<g style="fill:#000000; fill-opacity:0.0; 
stroke:#000000; stroke-width:0.000000; stroke-opacity:1; 
stroke-linecap:round; stroke-linejoin:round;">
<g >
</g>
<g style="fill:#000000; fill-opacity:0.0; 
stroke:#000000; stroke-width:1.000000; stroke-opacity:1; 
stroke-linecap:round; stroke-linejoin:round;">
</g>
<g style="fill:#000000; fill-opacity:1.0; 
stroke:#000000; stroke-width:1.000000; stroke-opacity:1; 
stroke-linecap:round; stroke-linejoin:round;">
<path style="fill:#000000; fill-opacity:1.0; 
stroke:#000000; stroke-width:1.000000; stroke-opacity:1; 
stroke-linecap:round; stroke-linejoin:round;fill-rule:evenodd;"
d="M 10638000.000000,14694000.000000
10638000.000000,16394000.000000
8638000.000000,16394000.000000
8638000.000000,14694000.000000
Z" /> 
<path style="fill:#000000; fill-opacity:1.0; 
stroke:#000000; stroke-width:1.000000; stroke-opacity:1; 
stroke-linecap:round; stroke-linejoin:round;fill-rule:evenodd;"
d="M 6638000.000000,14694000.000000
6638000.000000,16394000.000000
4638000.000000,16394000.000000
4638000.000000,14694000.000000
Z" /> 
</g>
<g >
</g>
<g style="fill:#000000; fill-opacity:1.0; 
stroke:#000000; stroke-width:1.000000; stroke-opacity:1; 
stroke-linecap:round; stroke-linejoin:round;">
<path style="fill:#000000; fill-opacity:1.0; 
stroke:#000000; stroke-width:1.000000; stroke-opacity:1; 
stroke-linecap:round; stroke-linejoin:round;fill-rule:evenodd;"
d="M 12756000.000000,5970000.000000
12756000.000000,4270000.000000
15256000.000000,4270000.000000
15256000.000000,5970000.000000
Z" /> 
<path style="fill:#000000; fill-opacity:1.0; 
stroke:#000000; stroke-width:1.000000; stroke-opacity:1; 
stroke-linecap:round; stroke-linejoin:round;fill-rule:evenodd;"
d="M 12756000.000000,8510000.000000
12756000.000000,6810000.000000
15256000.000000,6810000.000000
15256000.000000,8510000.000000
Z" /> 
<path style="fill:#000000; fill-opacity:1.0; 
stroke:#000000; stroke-width:1.000000; stroke-opacity:1; 
stroke-linecap:round; stroke-linejoin:round;fill-rule:evenodd;"
d="M 12756000.000000,11050000.000000
12756000.000000,9350000.000000
15256000.000000,9350000.000000
15256000.000000,11050000.000000
Z" /> 
</g>
<g >
</g>
<g style="fill:#000000; fill-opacity:1.0; 
stroke:#000000; stroke-width:1.000000; stroke-opacity:1; 
stroke-linecap:round; stroke-linejoin:round;">
<path style="fill:#000000; fill-opacity:1.0; 
stroke:#000000; stroke-width:1.000000; stroke-opacity:1; 
stroke-linecap:round; stroke-linejoin:round;fill-rule:evenodd;"
d="M 4162000.000000,5980000.000000
4162000.000000,4280000.000000
6162000.000000,4280000.000000
6162000.000000,5980000.000000
Z" /> 
<path style="fill:#000000; fill-opacity:1.0; 
stroke:#000000; stroke-width:1.000000; stroke-opacity:1; 
stroke-linecap:round; stroke-linejoin:round;fill-rule:evenodd;"
d="M 8162000.000000,5980000.000000
8162000.000000,4280000.000000
10162000.000000,4280000.000000
10162000.000000,5980000.000000
Z" /> 
</g>
<g >
</g>
<g style="fill:#000000; fill-opacity:1.0; 
stroke:#000000; stroke-width:1.000000; stroke-opacity:1; 
stroke-linecap:round; stroke-linejoin:round;">
<path style="fill:#000000; fill-opacity:1.0; 
stroke:#000000; stroke-width:1.000000; stroke-opacity:1; 
stroke-linecap:round; stroke-linejoin:round;fill-rule:evenodd;"
d="M 3362000.000000,8705000.000000
3362000.000000,7905000.000000
5362000.000000,7905000.000000
5362000.000000,8705000.000000
Z" /> 
<path style="fill:#000000; fill-opacity:1.0; 
stroke:#000000; stroke-width:1.000000; stroke-opacity:1; 
stroke-linecap:round; stroke-linejoin:round;fill-rule:evenodd;"
d="M 3362000.000000,9975000.000000
3362000.000000,9175000.000000
5362000.000000,9175000.000000
5362000.000000,9975000.000000
Z" /> 
<path style="fill:#000000; fill-opacity:1.0; 
stroke:#000000; stroke-width:1.000000; stroke-opacity:1; 
stroke-linecap:round; stroke-linejoin:round;fill-rule:evenodd;"
d="M 3362000.000000,11245000.000000
3362000.000000,10445000.000000
5362000.000000,10445000.000000
5362000.000000,11245000.000000
Z" /> 
<path style="fill:#000000; fill-opacity:1.0; 
stroke:#000000; stroke-width:1.000000; stroke-opacity:1; 
stroke-linecap:round; stroke-linejoin:round;fill-rule:evenodd;"
d="M 3362000.000000,12515000.000000
3362000.000000,11715000.000000
5362000.000000,11715000.000000
5362000.000000,12515000.000000
Z" /> 
<path style="fill:#000000; fill-opacity:1.0; 
stroke:#000000; stroke-width:1.000000; stroke-opacity:1; 
stroke-linecap:round; stroke-linejoin:round;fill-rule:evenodd;"
d="M 8962000.000000,12515000.000000
8962000.000000,11715000.000000
10962000.000000,11715000.000000
10962000.000000,12515000.000000
Z" /> 
<path style="fill:#000000; fill-opacity:1.0; 
stroke:#000000; stroke-width:1.000000; stroke-opacity:1; 
stroke-linecap:round; stroke-linejoin:round;fill-rule:evenodd;"
d="M 8962000.000000,11245000.000000
8962000.000000,10445000.000000
10962000.000000,10445000.000000
10962000.000000,11245000.000000
Z" /> 
<path style="fill:#000000; fill-opacity:1.0; 
stroke:#000000; stroke-width:1.000000; stroke-opacity:1; 
stroke-linecap:round; stroke-linejoin:round;fill-rule:evenodd;"
d="M 8962000.000000,9975000.000000
8962000.000000,9175000.000000
10962000.000000,9175000.000000
10962000.000000,9975000.000000
Z" /> 
<path style="fill:#000000; fill-opacity:1.0; 
stroke:#000000; stroke-width:1.000000; stroke-opacity:1; 
stroke-linecap:round; stroke-linejoin:round;fill-rule:evenodd;"
d="M 8962000.000000,8705000.000000
8962000.000000,7905000.000000
10962000.000000,7905000.000000
10962000.000000,8705000.000000
Z" /> 
</g>
<g >
</g>
<g style="fill:#000000; fill-opacity:1.0; 
stroke:#000000; stroke-width:1.000000; stroke-opacity:1; 
stroke-linecap:round; stroke-linejoin:round;">
<path style="fill:#000000; fill-opacity:1.0; 
stroke:#000000; stroke-width:1.000000; stroke-opacity:1; 
stroke-linecap:round; stroke-linejoin:round;fill-rule:evenodd;"
d="M 12258000.000000,16394000.000000
12258000.000000,14694000.000000
14258000.000000,14694000.000000
14258000.000000,16394000.000000
Z" /> 
<path style="fill:#000000; fill-opacity:1.0; 
stroke:#000000; stroke-width:1.000000; stroke-opacity:1; 
stroke-linecap:round; stroke-linejoin:round;fill-rule:evenodd;"
d="M 16258000.000000,16394000.000000
16258000.000000,14694000.000000
18258000.000000,14694000.000000
18258000.000000,16394000.000000
Z" /> 
</g>
<g >
</g>
<g >
</g>
<g style="fill:#000000; fill-opacity:1.0; 
stroke:#000000; stroke-width:1.000000; stroke-opacity:1; 
stroke-linecap:round; stroke-linejoin:round;">
</g>
<g style="fill:#000000; fill-opacity:1.0; 
stroke:#000000; stroke-width:400000.000000; stroke-opacity:1; 
stroke-linecap:round; stroke-linejoin:round;">
</g>
<g style="fill:#000000; fill-opacity:0.0; 
stroke:#000000; stroke-width:400000.000000; stroke-opacity:1; 
stroke-linecap:round; stroke-linejoin:round;">
<path d="M5638000 15544000
L5638000 14528000
" />
<path d="M5638000 14528000
L7416000 12750000
" />
<path d="M7416000 12750000
L7416000 9521000
" />
<path d="M7416000 9521000
L8632000 8305000
" />
<path d="M8632000 8305000
L9962000 8305000
" />
<path d="M9962000 12115000
L11861000 12115000
" />
<path d="M11861000 12115000
L13004000 13258000
" />
<path d="M13004000 13258000
L15036000 13258000
" />
<path d="M14972000 13258000
L17258000 15544000
" />
<path d="M9638000 15544000
L13258000 15544000
" />
<path d="M4362000 8305000
L4876000 7791000
" />
<path d="M4876000 7791000
L4876000 5416000
" />
<path d="M4876000 5416000
L5162000 5130000
" />
<path d="M9962000 8305000
L9448000 7791000
" />
<path d="M9448000 7791000
L9448000 5416000
" />
<path d="M9448000 5416000
L9162000 5130000
" />
<path d="M9962000 10845000
L13361000 10845000
" />
<path d="M13361000 10845000
L14006000 10200000
" />
<path d="M9962000 8305000
L13361000 8305000
" />
<path d="M13361000 8305000
L14006000 7660000
" />
<path d="M5162000 4082000
L6654000 2590000
" />
<path d="M5162000 5130000
L5162000 4082000
" />
<path d="M11476000 2590000
L14006000 5120000
" />
<path d="M6654000 2590000
L11476000 2590000
" />
</g>
<g >
</g>
</g>
<g style="fill:#FFFFFF; fill-opacity:0.0; 
stroke:#FFFFFF; stroke-width:400000.000000; stroke-opacity:1; 
stroke-linecap:round; stroke-linejoin:round;">
</g>
<g style="fill:#000000; fill-opacity:0.0; 
stroke:#000000; stroke-width:400000.000000; stroke-opacity:1; 
stroke-linecap:round; stroke-linejoin:round;">
</g>
<g style="fill:#000000; fill-opacity:0.0; 
stroke:#000000; stroke-width:100000.000000; stroke-opacity:1; 
stroke-linecap:round; stroke-linejoin:round;">
<path d="M50000 50000
L20878000 50000
" />
<path d="M20878000 50000
L20878000 20370000
" />
<path d="M20878000 20370000
L50000 20370000
" />
<path d="M50000 20370000
L50000 50000
" />
<g >
</g>
<g >
</g>
<g >
</g>
<g >
</g>
<g >
</g>
<g >
</g>
<g >
</g>
<g >
</g>
</g> 
</svg>
